<svg xmlns="http://www.w3.org/2000/svg" height="700" width="630">
 
  <rect x="0" y="0" height="700" width="630" fill="#302013" />
  <rect x="35" y="35" height="630" width="560" fill="#ebe5e1" stroke-width="2" stroke="#000000" />
  
  <line x1="35" y1="105" x2="595" y2="105" stroke="#000000" stroke-width="2" />
  <line x1="35" y1="175" x2="595" y2="175" stroke="#000000" stroke-width="2" />
  <line x1="35" y1="245" x2="595" y2="245" stroke="#000000" stroke-width="2" />
  <line x1="35" y1="315" x2="595" y2="315" stroke="#000000" stroke-width="2" />
  <line x1="35" y1="385" x2="595" y2="385" stroke="#000000" stroke-width="2" />
  <line x1="35" y1="455" x2="595" y2="455" stroke="#000000" stroke-width="2" />
  <line x1="35" y1="525" x2="595" y2="525" stroke="#000000" stroke-width="2" />
  <line x1="35" y1="595" x2="595" y2="595" stroke="#000000" stroke-width="2" />

  <line x1="105" y1="35" x2="105" y2="315" stroke="#000000" stroke-width="2" />
  <line x1="175" y1="35" x2="175" y2="315" stroke="#000000" stroke-width="2" />
  <line x1="245" y1="35" x2="245" y2="315" stroke="#000000" stroke-width="2" />
  <line x1="315" y1="35" x2="315" y2="315" stroke="#000000" stroke-width="2" />
  <line x1="385" y1="35" x2="385" y2="315" stroke="#000000" stroke-width="2" />
  <line x1="455" y1="35" x2="455" y2="315" stroke="#000000" stroke-width="2" />
  <line x1="525" y1="35" x2="525" y2="315" stroke="#000000" stroke-width="2" />
  
  <line x1="245" y1="35" x2="385" y2="175" stroke="#000000" stroke-width="2" />
  <line x1="385" y1="35" x2="245" y2="175" stroke="#000000" stroke-width="2" />

  <line x1="105" y1="385" x2="105" y2="665" stroke="#000000" stroke-width="2" />
  <line x1="175" y1="385" x2="175" y2="665" stroke="#000000" stroke-width="2" />
  <line x1="245" y1="385" x2="245" y2="665" stroke="#000000" stroke-width="2" />
  <line x1="315" y1="385" x2="315" y2="665" stroke="#000000" stroke-width="2" />
  <line x1="385" y1="385" x2="385" y2="665" stroke="#000000" stroke-width="2" />
  <line x1="455" y1="385" x2="455" y2="665" stroke="#000000" stroke-width="2" />
  <line x1="525" y1="385" x2="525" y2="665" stroke="#000000" stroke-width="2" />
  
  <line x1="245" y1="525" x2="385" y2="665" stroke="#000000" stroke-width="2" />
  <line x1="385" y1="525" x2="245" y2="665" stroke="#000000" stroke-width="2" />

</svg>